<?xml version="1.0" encoding="UTF-8" standalone="no"?>
<!DOCTYPE svg PUBLIC "-//W3C//DTD SVG 1.1//EN"
 "http://www.w3.org/Graphics/SVG/1.1/DTD/svg11.dtd">
<!-- Generated by graphviz version 2.38.0 (20140413.2041)
 -->
<!-- Title: main.c Pages: 1 -->
<svg width="121pt" height="196pt"
 viewBox="0.00 0.00 121.00 196.00" xmlns="http://www.w3.org/2000/svg" xmlns:xlink="http://www.w3.org/1999/xlink">
<g id="graph0" class="graph" transform="scale(1 1) rotate(0) translate(4 192)">
<title>main.c</title>
<polygon fill="white" stroke="none" points="-4,4 -4,-192 117,-192 117,4 -4,4"/>
<!-- Node1 -->
<g id="node1" class="node"><title>Node1</title>
<g id="a_node1"><a xlink:title=" ">
<polygon fill="#bfbfbf" stroke="black" points="0,-168.5 0,-187.5 46,-187.5 46,-168.5 0,-168.5"/>
<text text-anchor="middle" x="23" y="-175.5" font-family="Helvetica,sans-Serif" font-size="10.00">main.c</text>
</a>
</g>
</g>
<!-- Node2 -->
<g id="node2" class="node"><title>Node2</title>
<g id="a_node2"><a xlink:title=" ">
<polygon fill="white" stroke="#bfbfbf" points="9.5,-0.5 9.5,-19.5 56.5,-19.5 56.5,-0.5 9.5,-0.5"/>
<text text-anchor="middle" x="33" y="-7.5" font-family="Helvetica,sans-Serif" font-size="10.00">avr/io.h</text>
</a>
</g>
</g>
<!-- Node1&#45;&gt;Node2 -->
<g id="edge1" class="edge"><title>Node1&#45;&gt;Node2</title>
<path fill="none" stroke="midnightblue" d="M19.2405,-168.328C11.0573,-148.23 -6.72746,-97.0461 5,-56 7.90185,-45.8435 13.8316,-35.747 19.4901,-27.6991"/>
<polygon fill="midnightblue" stroke="midnightblue" points="22.3756,-29.6853 25.5876,-19.5891 16.7806,-25.4786 22.3756,-29.6853"/>
</g>
<!-- Node3 -->
<g id="node3" class="node"><title>Node3</title>
<g id="a_node3"><a xlink:href="spi_8h.html" target="_top" xlink:title=" ">
<polygon fill="white" stroke="black" points="14,-56.5 14,-75.5 52,-75.5 52,-56.5 14,-56.5"/>
<text text-anchor="middle" x="33" y="-63.5" font-family="Helvetica,sans-Serif" font-size="10.00">spi.h</text>
</a>
</g>
</g>
<!-- Node1&#45;&gt;Node3 -->
<g id="edge2" class="edge"><title>Node1&#45;&gt;Node3</title>
<path fill="none" stroke="midnightblue" d="M23.7847,-168.368C25.3985,-150.617 29.1212,-109.666 31.3093,-85.5974"/>
<polygon fill="midnightblue" stroke="midnightblue" points="34.7991,-85.8673 32.219,-75.5914 27.8279,-85.2334 34.7991,-85.8673"/>
</g>
<!-- Node4 -->
<g id="node4" class="node"><title>Node4</title>
<g id="a_node4"><a xlink:href="as5048a_8h.html" target="_top" xlink:title=" ">
<polygon fill="white" stroke="black" points="51,-112.5 51,-131.5 113,-131.5 113,-112.5 51,-112.5"/>
<text text-anchor="middle" x="82" y="-119.5" font-family="Helvetica,sans-Serif" font-size="10.00">as5048a.h</text>
</a>
</g>
</g>
<!-- Node1&#45;&gt;Node4 -->
<g id="edge4" class="edge"><title>Node1&#45;&gt;Node4</title>
<path fill="none" stroke="midnightblue" d="M32.4794,-168.324C41.2011,-160.341 54.3435,-148.313 64.8978,-138.653"/>
<polygon fill="midnightblue" stroke="midnightblue" points="67.3345,-141.167 72.3481,-131.834 62.6083,-136.004 67.3345,-141.167"/>
</g>
<!-- Node3&#45;&gt;Node2 -->
<g id="edge3" class="edge"><title>Node3&#45;&gt;Node2</title>
<path fill="none" stroke="midnightblue" d="M33,-56.083C33,-49.0059 33,-38.8611 33,-29.9865"/>
<polygon fill="midnightblue" stroke="midnightblue" points="36.5001,-29.751 33,-19.7511 29.5001,-29.7511 36.5001,-29.751"/>
</g>
<!-- Node4&#45;&gt;Node2 -->
<g id="edge5" class="edge"><title>Node4&#45;&gt;Node2</title>
<path fill="none" stroke="midnightblue" d="M79.9226,-112.335C76.718,-99.6314 69.9867,-75.3624 61,-56 56.4967,-46.2975 50.3095,-36.1275 44.8963,-27.9153"/>
<polygon fill="midnightblue" stroke="midnightblue" points="47.7622,-25.9054 39.2446,-19.6046 41.9739,-29.8419 47.7622,-25.9054"/>
</g>
<!-- Node4&#45;&gt;Node3 -->
<g id="edge6" class="edge"><title>Node4&#45;&gt;Node3</title>
<path fill="none" stroke="midnightblue" d="M73.9086,-112.083C66.8446,-104.298 56.4124,-92.8015 47.8511,-83.3665"/>
<polygon fill="midnightblue" stroke="midnightblue" points="50.2527,-80.8047 40.9408,-75.7511 45.0688,-85.5087 50.2527,-80.8047"/>
</g>
</g>
</svg>
