<?xml version="1.0" encoding="UTF-8" standalone="no"?>
<!DOCTYPE svg PUBLIC "-//W3C//DTD SVG 1.1//EN"
 "http://www.w3.org/Graphics/SVG/1.1/DTD/svg11.dtd">
<!-- Generated by graphviz version 2.38.0 (20140413.2041)
 -->
<!-- Title: spi_txrx Pages: 1 -->
<svg width="166pt" height="142pt"
 viewBox="0.00 0.00 166.00 142.00" xmlns="http://www.w3.org/2000/svg" xmlns:xlink="http://www.w3.org/1999/xlink">
<g id="graph0" class="graph" transform="scale(1 1) rotate(0) translate(4 138)">
<title>spi_txrx</title>
<polygon fill="white" stroke="none" points="-4,4 -4,-138 162,-138 162,4 -4,4"/>
<!-- Node1 -->
<g id="node1" class="node"><title>Node1</title>
<g id="a_node1"><a xlink:title=" ">
<polygon fill="#bfbfbf" stroke="black" points="107,-57.5 107,-76.5 158,-76.5 158,-57.5 107,-57.5"/>
<text text-anchor="middle" x="132.5" y="-64.5" font-family="Helvetica,sans-Serif" font-size="10.00">spi_txrx</text>
</a>
</g>
</g>
<!-- Node2 -->
<g id="node2" class="node"><title>Node2</title>
<g id="a_node2"><a xlink:href="spi_8h.html#a67caef0cc9e56f82fb5212f0bb8aff64" target="_top" xlink:title=" ">
<polygon fill="white" stroke="black" points="1,-114.5 1,-133.5 70,-133.5 70,-114.5 1,-114.5"/>
<text text-anchor="middle" x="35.5" y="-121.5" font-family="Helvetica,sans-Serif" font-size="10.00">spi_read_16</text>
</a>
</g>
</g>
<!-- Node1&#45;&gt;Node2 -->
<g id="edge1" class="edge"><title>Node1&#45;&gt;Node2</title>
<path fill="none" stroke="midnightblue" d="M108.025,-82.1834C96.8953,-89.2684 83.3586,-97.7238 71,-105 65.6968,-108.122 59.8584,-111.398 54.5165,-114.332"/>
<polygon fill="midnightblue" stroke="midnightblue" points="110.194,-84.9502 116.728,-76.6103 106.42,-79.0552 110.194,-84.9502"/>
</g>
<!-- Node3 -->
<g id="node3" class="node"><title>Node3</title>
<g id="a_node3"><a xlink:href="spi_8h.html#a23721261eb6dad9ac25390e7675fe1b7" target="_top" xlink:title=" ">
<polygon fill="white" stroke="black" points="3.5,-76.5 3.5,-95.5 67.5,-95.5 67.5,-76.5 3.5,-76.5"/>
<text text-anchor="middle" x="35.5" y="-83.5" font-family="Helvetica,sans-Serif" font-size="10.00">spi_read_8</text>
</a>
</g>
</g>
<!-- Node1&#45;&gt;Node3 -->
<g id="edge2" class="edge"><title>Node1&#45;&gt;Node3</title>
<path fill="none" stroke="midnightblue" d="M96.6379,-73.9724C87.1795,-75.8641 77.0003,-77.8999 67.7546,-79.7491"/>
<polygon fill="midnightblue" stroke="midnightblue" points="97.4205,-77.3853 106.54,-71.992 96.0476,-70.5212 97.4205,-77.3853"/>
</g>
<!-- Node4 -->
<g id="node4" class="node"><title>Node4</title>
<g id="a_node4"><a xlink:href="spi_8h.html#a2937ecbee6c35b26dd934b9905cdfa63" target="_top" xlink:title=" ">
<polygon fill="white" stroke="black" points="0,-38.5 0,-57.5 71,-57.5 71,-38.5 0,-38.5"/>
<text text-anchor="middle" x="35.5" y="-45.5" font-family="Helvetica,sans-Serif" font-size="10.00">spi_write_16</text>
</a>
</g>
</g>
<!-- Node1&#45;&gt;Node4 -->
<g id="edge3" class="edge"><title>Node1&#45;&gt;Node4</title>
<path fill="none" stroke="midnightblue" d="M96.4925,-59.9985C88.2687,-58.3537 79.5072,-56.6014 71.293,-54.9586"/>
<polygon fill="midnightblue" stroke="midnightblue" points="96.0476,-63.4788 106.54,-62.008 97.4205,-56.6147 96.0476,-63.4788"/>
</g>
<!-- Node5 -->
<g id="node5" class="node"><title>Node5</title>
<g id="a_node5"><a xlink:href="spi_8h.html#a3709bfe1d89e7a683c6f927abac3f9f4" target="_top" xlink:title=" ">
<polygon fill="white" stroke="black" points="3,-0.5 3,-19.5 68,-19.5 68,-0.5 3,-0.5"/>
<text text-anchor="middle" x="35.5" y="-7.5" font-family="Helvetica,sans-Serif" font-size="10.00">spi_write_8</text>
</a>
</g>
</g>
<!-- Node1&#45;&gt;Node5 -->
<g id="edge4" class="edge"><title>Node1&#45;&gt;Node5</title>
<path fill="none" stroke="midnightblue" d="M108.025,-51.8166C96.8953,-44.7316 83.3586,-36.2762 71,-29 65.6968,-25.8777 59.8584,-22.6025 54.5165,-19.6677"/>
<polygon fill="midnightblue" stroke="midnightblue" points="106.42,-54.9448 116.728,-57.3897 110.194,-49.0498 106.42,-54.9448"/>
</g>
</g>
</svg>
